<?xml version="1.0" standalone="no"?>
<!DOCTYPE svg PUBLIC "-//W3C//DTD SVG 20010904//EN"
 "http://www.w3.org/TR/2001/REC-SVG-20010904/DTD/svg10.dtd">
<svg version="1.0" xmlns="http://www.w3.org/2000/svg"
 width="240.000000pt" height="240.000000pt" viewBox="0 0 240.000000 240.000000"
 preserveAspectRatio="xMidYMid meet">
<metadata>
Created by potrace 1.11, written by Peter Selinger 2001-2013
</metadata>
<g transform="translate(0.000000,240.000000) scale(0.100000,-0.100000)"
fill="#000000" stroke="none">
<path d="M640 2253 c-308 -22 -551 -240 -606 -543 -11 -61 -6 -182 11 -260 9
-41 18 -84 20 -95 25 -120 147 -357 270 -520 142 -189 363 -398 560 -528 93
-62 278 -157 306 -157 20 0 223 99 227 111 2 5 8 9 13 9 6 0 42 22 82 49 210
142 432 359 579 568 57 80 124 193 153 259 15 32 33 73 40 89 18 40 53 161 59
205 3 19 9 49 12 65 8 37 8 171 0 205 -3 14 -8 39 -12 55 -10 51 -82 205 -96
205 -4 0 -8 4 -8 10 0 9 -20 37 -46 64 -38 38 -95 86 -103 86 -5 0 -11 4 -13
8 -7 19 -124 75 -173 83 -5 1 -20 5 -33 10 -70 27 -213 27 -315 0 -117 -31
-210 -84 -295 -169 l-73 -72 -57 59 c-70 73 -137 119 -222 153 -94 38 -195 56
-280 51z"/>
</g>
</svg>
