<?xml version="1.0" standalone="no"?>
<!DOCTYPE svg PUBLIC "-//W3C//DTD SVG 20010904//EN"
 "http://www.w3.org/TR/2001/REC-SVG-20010904/DTD/svg10.dtd">
<svg version="1.0" xmlns="http://www.w3.org/2000/svg"
 width="1440.000000pt" height="258.000000pt" viewBox="0 0 1440.000000 258.000000"
 preserveAspectRatio="xMidYMid meet">
<metadata>
Created by potrace 1.15, written by Peter Selinger 2001-2017
</metadata>
<g transform="translate(0.000000,258.000000) scale(0.100000,-0.100000)"
fill="#000000" stroke="none">
<path d="M454 2563 c-35 -7 -50 -34 -63 -113 -7 -41 -14 -76 -16 -79 -3 -2
-23 10 -46 29 -34 27 -52 33 -102 37 -34 3 -75 0 -90 -6 l-29 -11 82 -90 81
-89 -43 -31 c-24 -18 -86 -57 -138 -88 l-94 -56 39 -18 c22 -9 46 -18 54 -18
11 0 86 40 198 106 40 23 47 16 34 -33 -6 -21 -14 -78 -17 -128 -7 -101 -3
-109 69 -134 72 -24 87 -4 107 149 6 47 16 89 21 94 5 6 22 3 44 -7 49 -24
102 -21 142 6 18 12 33 25 33 29 0 19 -66 78 -120 107 -33 18 -60 36 -60 40 0
13 31 36 110 81 41 24 104 63 139 87 36 25 75 49 89 54 35 13 21 34 -25 37
-49 4 -145 -27 -231 -74 -88 -48 -92 -46 -92 26 0 47 -4 64 -20 80 -11 11 -23
19 -27 19 -5 -1 -18 -4 -29 -6z"/>
<path d="M13904 2563 c-35 -7 -50 -34 -63 -113 -7 -41 -14 -76 -16 -79 -3 -2
-23 10 -46 29 -34 27 -52 33 -102 37 -34 3 -75 0 -90 -6 l-29 -11 82 -90 81
-89 -43 -31 c-24 -18 -86 -57 -138 -88 l-94 -56 39 -18 c22 -9 46 -18 54 -18
11 0 86 40 198 106 40 23 47 16 34 -33 -6 -21 -14 -78 -17 -128 -7 -101 -3
-109 69 -134 72 -24 87 -4 107 149 6 47 16 89 21 94 5 6 22 3 44 -7 49 -24
102 -21 142 6 18 12 33 25 33 29 0 19 -66 78 -120 107 -33 18 -60 36 -60 40 0
13 31 36 110 81 41 24 104 63 139 87 36 25 75 49 89 54 35 13 21 34 -25 37
-49 4 -145 -27 -231 -74 -88 -48 -92 -46 -92 26 0 47 -4 64 -20 80 -11 11 -23
19 -27 19 -5 -1 -18 -4 -29 -6z"/>
<path d="M4247 2479 c-9 -13 -32 -109 -52 -214 -20 -104 -45 -221 -56 -260
-10 -38 -28 -119 -39 -180 -36 -189 -33 -180 -61 -179 -13 1 -44 9 -69 19 -26
10 -89 19 -151 22 l-105 6 -86 -77 c-115 -104 -174 -193 -232 -354 -28 -79
-63 -135 -174 -278 -137 -177 -288 -248 -353 -166 -19 24 -21 35 -16 109 6 88
41 193 82 249 15 19 46 39 85 55 95 38 159 95 198 182 48 103 82 194 82 220 0
32 -50 126 -74 140 -12 6 -57 11 -101 11 -114 1 -182 -31 -276 -132 -78 -83
-165 -210 -205 -296 -29 -64 -61 -90 -112 -90 -52 0 -72 31 -72 108 0 70 22
157 45 176 19 15 37 82 29 104 -12 32 -132 6 -172 -37 -30 -33 -52 -121 -52
-211 0 -66 -4 -90 -24 -126 -13 -25 -29 -63 -36 -85 -13 -41 -144 -270 -160
-280 -30 -19 -30 105 1 329 42 303 49 399 31 433 -24 44 -130 54 -165 15 -8
-9 -26 -62 -41 -117 -31 -123 -73 -247 -115 -343 -33 -76 -165 -287 -194 -311
-25 -20 -40 -2 -62 69 -23 76 -17 172 25 400 38 207 38 239 4 271 -20 19 -37
24 -74 24 -96 0 -122 -46 -196 -337 -32 -126 -39 -169 -38 -248 1 -209 84
-359 199 -360 38 0 123 40 152 71 84 89 124 143 163 219 l23 45 13 -72 c12
-72 42 -135 103 -221 28 -37 36 -42 70 -42 82 0 166 102 306 372 35 67 62 108
72 108 8 0 31 -14 51 -31 30 -27 40 -30 81 -27 25 3 54 8 64 12 16 7 16 5 6
-20 -6 -16 -11 -68 -11 -117 0 -110 20 -155 104 -232 124 -115 258 -152 381
-105 68 26 166 112 258 227 32 40 60 70 62 65 2 -4 7 -20 11 -37 4 -16 18 -44
31 -60 24 -33 151 -105 184 -105 10 0 48 19 83 43 59 40 67 50 138 178 84 151
152 272 157 278 10 13 12 -12 4 -50 -6 -24 -20 -93 -32 -154 -11 -60 -27 -137
-34 -170 -36 -161 -28 -201 52 -255 56 -36 103 -46 152 -31 64 19 73 37 102
209 33 195 69 378 107 547 16 72 42 213 56 315 15 102 33 217 41 255 7 39 17
108 20 155 3 47 13 113 21 148 37 166 4 224 -135 238 -54 6 -60 5 -74 -17z
m-1042 -846 c-1 -77 -61 -190 -146 -275 -60 -61 -99 -84 -99 -59 0 29 63 167
91 198 17 20 43 62 56 92 49 111 98 133 98 44z m779 -89 c21 -8 20 -30 -4 -63
-10 -15 -28 -53 -40 -83 -11 -30 -29 -63 -41 -74 -11 -10 -29 -38 -39 -62 -28
-64 -169 -287 -207 -329 -59 -64 -77 -27 -43 89 29 101 59 176 89 223 14 22
48 85 76 140 43 86 57 105 99 133 47 31 78 38 110 26z"/>
<path d="M5297 2479 c-9 -13 -32 -109 -52 -214 -20 -104 -45 -221 -56 -260
-10 -38 -28 -119 -39 -180 -36 -189 -33 -180 -61 -179 -13 1 -44 9 -69 19 -26
10 -89 19 -150 22 l-106 6 -83 -74 c-50 -44 -103 -103 -131 -146 -140 -212
-181 -464 -95 -578 24 -33 151 -105 184 -105 10 0 48 19 83 43 59 40 67 50
138 178 84 151 152 272 157 278 10 13 12 -12 4 -50 -6 -24 -20 -93 -32 -154
-11 -60 -27 -137 -34 -170 -36 -161 -28 -201 52 -255 56 -36 103 -46 152 -31
64 19 73 37 102 209 33 195 69 378 107 547 16 72 42 213 56 315 15 102 33 217
41 255 7 39 17 108 20 155 3 47 13 113 21 148 37 166 4 224 -135 238 -54 6
-60 5 -74 -17z m-263 -935 c21 -8 20 -30 -4 -63 -10 -15 -28 -53 -40 -83 -11
-30 -29 -63 -41 -74 -11 -10 -29 -38 -39 -62 -28 -64 -169 -287 -207 -329 -59
-64 -77 -27 -43 89 29 101 59 176 89 223 14 22 48 85 76 140 43 86 57 105 99
133 47 31 78 38 110 26z"/>
<path d="M12567 2479 c-9 -13 -32 -109 -52 -214 -20 -104 -45 -221 -56 -260
-10 -38 -28 -119 -39 -180 -36 -189 -33 -180 -61 -179 -13 1 -44 9 -69 19 -26
10 -89 19 -151 22 l-105 6 -86 -77 c-119 -107 -175 -195 -237 -369 -38 -109
-41 -113 -101 -186 -107 -129 -180 -142 -180 -33 0 26 9 115 20 197 11 83 20
169 20 193 0 55 -32 117 -70 137 -57 30 -156 11 -225 -43 -37 -29 -116 -128
-169 -212 -56 -86 -54 -85 -61 -79 -2 3 0 21 5 40 10 33 18 74 42 229 13 88
12 198 -4 217 -13 17 -102 43 -144 43 -18 0 -52 -9 -77 -19 -45 -19 -45 -19
-40 -63 8 -70 -51 -319 -95 -398 -101 -186 -255 -400 -287 -400 -16 0 -22 25
-31 132 -4 55 -3 92 3 100 6 7 14 29 18 48 4 19 15 64 26 99 10 35 19 85 19
111 0 55 35 211 56 252 31 60 -31 91 -136 70 -61 -13 -92 -41 -111 -102 -14
-45 -116 -268 -176 -385 -96 -187 -156 -275 -187 -275 -14 0 -46 67 -46 95 0
52 67 356 94 428 31 81 34 155 8 187 -14 17 -32 23 -84 27 -59 5 -72 3 -111
-20 -25 -15 -48 -34 -52 -44 -4 -10 -24 -67 -45 -128 -68 -199 -77 -216 -133
-263 -56 -46 -170 -106 -226 -117 -48 -10 -151 23 -151 48 0 10 42 62 93 115
98 104 165 208 197 309 118 368 130 421 130 569 0 112 -16 198 -42 221 -40 36
-151 10 -286 -65 -22 -12 -39 -49 -107 -237 -36 -99 -77 -208 -92 -242 -14
-34 -51 -169 -82 -300 l-57 -238 -33 3 c-38 4 -71 -20 -71 -52 0 -11 16 -37
36 -57 l36 -37 -42 -184 c-59 -254 -59 -252 -60 -359 0 -104 36 -313 64 -367
34 -66 152 -132 236 -132 22 0 58 7 80 16 38 15 43 24 113 168 111 227 112
230 111 436 0 142 -4 183 -18 220 -35 89 -36 86 38 109 76 23 117 43 135 65
22 26 28 19 35 -42 14 -121 115 -231 220 -240 132 -11 219 60 313 255 43 89
58 112 61 94 2 -13 -1 -43 -7 -67 -25 -98 -4 -185 61 -248 35 -35 56 -45 115
-60 39 -9 83 -14 97 -10 34 8 130 111 191 205 65 100 65 100 43 22 -13 -46
-18 -90 -16 -136 3 -59 7 -71 34 -98 40 -40 95 -58 145 -49 60 11 86 42 115
138 43 139 249 509 312 560 38 30 39 14 7 -158 -28 -151 -6 -275 59 -342 21
-21 60 -43 111 -62 107 -39 130 -31 240 79 l83 83 12 -47 c6 -25 22 -60 35
-76 24 -33 151 -105 184 -105 10 0 48 19 83 43 59 40 67 50 138 178 84 151
152 272 157 278 10 13 12 -12 4 -50 -6 -24 -20 -93 -32 -154 -11 -60 -27 -137
-34 -170 -36 -161 -28 -201 52 -255 56 -36 103 -46 152 -31 64 19 73 37 102
209 33 195 69 378 107 547 16 72 42 213 56 315 15 102 33 217 41 255 7 39 17
108 20 155 3 47 13 113 21 148 37 166 4 224 -135 238 -54 6 -60 5 -74 -17z
m-3182 -304 c11 -123 -18 -266 -116 -558 -32 -97 -69 -196 -80 -220 -66 -128
-98 -147 -73 -42 7 33 35 168 60 300 43 224 106 459 141 529 18 35 43 66 53
66 4 0 11 -34 15 -75z m2919 -631 c21 -8 20 -30 -4 -63 -10 -15 -28 -53 -40
-83 -11 -30 -29 -63 -41 -74 -11 -10 -29 -38 -39 -62 -28 -64 -169 -287 -207
-329 -59 -64 -77 -27 -43 89 29 101 59 176 89 223 14 22 48 85 76 140 43 86
57 105 99 133 47 31 78 38 110 26z m-3167 -607 c46 -68 56 -133 51 -321 -4
-140 -8 -170 -30 -231 -42 -117 -85 -203 -107 -214 -49 -26 -87 34 -77 121 3
29 6 64 7 78 0 14 6 48 14 75 7 28 16 75 20 105 5 52 25 164 44 255 5 22 7 66
4 97 -3 32 -3 65 1 73 10 27 39 12 73 -38z"/>
<path d="M5683 1904 c-9 -15 -19 -52 -21 -83 -5 -64 9 -87 56 -96 15 -3 48
-10 73 -16 91 -20 135 32 122 143 -9 73 -13 75 -135 77 -73 1 -79 0 -95 -25z"/>
<path d="M7953 1779 c-34 -10 -68 -48 -102 -116 -27 -54 -37 -59 -70 -35 -35
26 -99 58 -134 66 -36 8 -149 -18 -212 -50 -55 -28 -191 -172 -236 -249 -14
-25 -43 -95 -63 -154 -31 -89 -47 -121 -91 -174 -111 -135 -185 -150 -185 -39
0 26 9 115 20 197 11 83 20 169 20 193 0 55 -32 117 -70 137 -57 30 -156 11
-225 -43 -37 -29 -116 -128 -169 -212 -56 -86 -54 -85 -61 -79 -2 3 0 21 5 40
10 33 18 74 42 229 13 88 12 198 -4 217 -13 17 -102 43 -144 43 -18 0 -52 -9
-77 -19 -45 -19 -45 -19 -40 -63 3 -27 -5 -88 -22 -163 -28 -130 -50 -197 -91
-277 -15 -29 -35 -77 -45 -107 -28 -80 -164 -295 -222 -349 -21 -20 -25 -21
-37 -7 -17 21 -7 169 20 295 44 198 60 307 60 397 l0 93 -32 20 c-25 15 -47
20 -88 18 l-55 -3 -14 -45 c-8 -25 -39 -112 -68 -195 -60 -166 -83 -278 -83
-396 0 -155 25 -206 130 -259 81 -41 146 -20 255 82 52 49 75 80 110 152 25
50 41 78 37 61 -4 -16 -7 -65 -7 -107 0 -73 2 -79 31 -108 40 -41 94 -59 145
-50 60 11 86 42 115 138 43 139 249 509 312 560 38 30 39 14 7 -158 -28 -151
-6 -275 59 -342 21 -21 60 -43 111 -62 104 -38 128 -31 230 68 l75 73 10 -37
c16 -60 67 -127 113 -149 100 -48 146 -34 243 76 78 87 210 279 228 331 14 40
64 122 74 122 2 0 2 -39 -2 -87 -8 -93 -55 -301 -83 -367 -12 -26 -65 -82
-163 -172 -173 -160 -266 -270 -322 -382 -55 -109 -62 -174 -23 -220 29 -34
103 -72 141 -72 22 0 67 9 155 31 97 24 234 168 316 334 97 195 183 434 183
510 0 25 29 52 195 177 55 42 121 98 146 124 81 87 169 195 169 208 0 21 -27
39 -43 29 -8 -4 -72 -69 -143 -144 -136 -144 -174 -179 -239 -222 -45 -31 -57
-23 -44 32 5 20 16 96 24 169 8 73 24 165 35 205 11 40 21 104 22 142 2 85
-17 128 -63 144 -18 6 -32 11 -33 10 -1 0 -15 -5 -33 -10z m-187 -232 c9 -25
-58 -153 -171 -322 -147 -222 -261 -356 -278 -328 -14 24 86 277 146 369 82
126 178 252 207 272 36 24 88 29 96 9z m-121 -859 c-14 -68 -138 -305 -242
-464 -18 -28 -52 -64 -74 -80 l-41 -28 -24 27 c-30 35 -31 83 -5 158 32 93 57
132 117 185 33 28 104 92 158 143 55 50 104 91 109 91 5 0 6 -15 2 -32z"/>
</g>
</svg>
