<?xml version="1.0" standalone="no"?>
<!DOCTYPE svg PUBLIC "-//W3C//DTD SVG 20010904//EN"
 "http://www.w3.org/TR/2001/REC-SVG-20010904/DTD/svg10.dtd">
<svg version="1.0" xmlns="http://www.w3.org/2000/svg"
 width="1801.000000pt" height="834.000000pt" viewBox="0 0 1801.000000 834.000000"
 preserveAspectRatio="xMidYMid meet">
<metadata>
Created by potrace 1.15, written by Peter Selinger 2001-2017
</metadata>
<g transform="translate(0.000000,834.000000) scale(0.100000,-0.100000)"
fill="#7300d3" stroke="none">
<path d="M2246 7538 c-14 -20 -16 -81 -16 -470 l0 -448 -665 0 c-714 0 -708 0
-735 -49 -6 -13 -10 -166 -10 -423 0 -397 0 -405 21 -427 11 -12 32 -26 46
-32 14 -5 476 -9 1159 -9 624 0 1134 -2 1134 -5 0 -3 -555 -713 -1232 -1578
l-1233 -1572 -3 -368 -3 -368 35 -35 34 -34 726 0 726 0 0 -448 c0 -389 2
-450 16 -470 l15 -22 439 0 c385 0 440 2 454 16 14 14 16 70 16 470 l0 454
735 0 c637 0 740 2 765 15 38 20 50 43 50 99 0 43 -5 51 -71 123 -151 164
-282 360 -380 569 -38 79 -56 107 -79 119 -25 13 -156 15 -1045 15 -558 0
-1015 2 -1015 5 0 3 546 704 1213 1558 667 854 1225 1568 1240 1588 l27 36 0
352 c0 223 -4 359 -10 372 -27 49 -20 49 -750 49 l-680 0 0 454 c0 400 -2 456
-16 470 -14 14 -69 16 -454 16 l-439 0 -15 -22z"/>
<path d="M8848 7051 l-33 -29 0 -2244 c0 -2490 -4 -2333 65 -2541 42 -124 89
-205 168 -288 161 -171 415 -284 692 -309 115 -10 412 2 515 20 114 21 203 51
230 80 46 48 44 92 -7 196 -80 160 -131 322 -158 499 -14 95 -21 110 -62 135
-28 17 -45 18 -164 13 -122 -6 -135 -4 -177 16 -38 18 -51 33 -74 79 l-28 57
-5 2141 c-4 1883 -7 2143 -20 2160 -35 44 -26 43 -477 44 l-433 0 -32 -29z"/>
<path d="M10867 7069 c-50 -29 -47 97 -47 -2268 0 -1541 3 -2231 11 -2303 40
-370 185 -591 484 -738 193 -95 335 -123 601 -122 293 2 488 38 626 115 85 47
108 76 108 134 0 55 -12 78 -119 233 -105 151 -144 217 -196 333 -60 134 -56
132 -245 132 -183 0 -197 5 -240 91 -24 47 -25 59 -32 294 -3 135 -6 1101 -7
2148 l-1 1904 -29 29 -29 29 -434 0 c-275 0 -439 -4 -451 -11z"/>
<path d="M16688 6597 c-217 -74 -339 -275 -307 -505 31 -222 221 -382 453
-382 237 0 417 151 456 382 57 338 -275 616 -602 505z m227 -62 c102 -17 214
-107 263 -213 24 -50 27 -70 27 -157 0 -93 -2 -105 -33 -167 -79 -161 -255
-246 -422 -204 -115 30 -208 107 -259 215 -23 49 -26 69 -26 156 0 87 3 107
26 155 54 114 164 199 285 220 49 8 62 7 139 -5z"/>
<path d="M16660 6161 l0 -271 40 0 40 0 0 115 0 115 44 0 44 0 73 -115 72
-115 45 0 c53 0 55 -5 -32 128 -36 57 -66 105 -66 107 0 3 8 5 18 5 31 0 83
40 98 75 31 76 7 163 -56 200 -30 17 -57 20 -177 24 l-143 3 0 -271z m264 178
c46 -21 53 -97 12 -124 -12 -8 -61 -18 -109 -21 l-87 -7 0 82 0 81 80 0 c43 0
90 -5 104 -11z"/>
<path d="M6175 5699 c-596 -80 -1072 -377 -1365 -854 -385 -625 -422 -1548
-89 -2202 283 -555 795 -896 1484 -988 145 -20 474 -22 625 -6 523 58 1000
285 1343 639 70 73 77 83 77 120 0 22 -3 47 -6 56 -3 8 -45 44 -93 80 -113 84
-271 234 -368 350 -87 105 -110 120 -165 113 -31 -4 -54 -20 -117 -80 -224
-214 -471 -319 -818 -347 -298 -24 -589 40 -779 171 -105 72 -208 199 -266
328 -29 64 -78 234 -78 272 0 18 38 19 1355 19 1508 0 1401 -5 1432 67 21 51
29 370 14 533 -68 716 -435 1280 -1011 1554 -165 78 -309 124 -510 162 -101
19 -555 28 -665 13z m515 -855 c267 -55 474 -216 585 -456 29 -63 75 -205 75
-230 0 -5 -398 -8 -885 -8 -814 0 -885 1 -885 16 0 76 99 291 180 391 199 246
570 360 930 287z"/>
<path d="M14171 5694 c-440 -60 -812 -247 -1104 -554 -127 -134 -214 -258
-305 -440 -117 -232 -187 -468 -223 -750 -16 -123 -16 -468 0 -592 111 -873
644 -1479 1463 -1662 352 -79 785 -79 1131 -1 393 89 748 281 1035 560 85 83
104 106 109 137 10 64 -1 80 -99 154 -110 81 -301 264 -378 362 -105 133 -146
135 -275 14 -219 -208 -471 -314 -809 -342 -320 -26 -616 45 -815 195 -82 62
-170 174 -221 280 -37 75 -90 251 -90 296 0 18 38 19 1358 19 1328 0 1358 0
1389 20 50 30 57 71 57 345 1 181 -4 268 -17 355 -138 897 -726 1493 -1584
1605 -144 19 -479 18 -622 -1z m549 -850 c267 -55 474 -216 585 -456 29 -63
75 -205 75 -230 0 -5 -398 -8 -885 -8 -862 0 -885 0 -885 19 0 32 41 153 76
226 150 309 478 487 859 469 55 -3 134 -12 175 -20z"/>
</g>
</svg>
